<svg xmlns="http://www.w3.org/2000/svg" viewBox="0 0 209.61 106.82"><defs><style>.cls-1{fill:#231f20;}.cls-2{opacity:0.8;}</style></defs><g id="Layer_2" data-name="Layer 2"><g id="Layer_1-2" data-name="Layer 1"><path class="cls-1" d="M39,51.15c-5-3.54-8.24-5.06-13.67-5.06a13.24,13.24,0,0,0,0,26.47C30.74,72.56,34,71,39,67.5l.37.36v9.69a24.52,24.52,0,0,1-14,3.83,22.06,22.06,0,1,1,0-44.11,24.52,24.52,0,0,1,14,3.83v9.69Z" transform="translate(-1 -9.04)"/><path class="cls-1" d="M90.84,59.33A22.42,22.42,0,1,1,68.42,37.27,22.26,22.26,0,0,1,90.84,59.33Zm-35.29,0a12.87,12.87,0,1,0,25.74,0,12.88,12.88,0,1,0-25.74,0Z" transform="translate(-1 -9.04)"/><path class="cls-1" d="M107.26,29.67l.29.29V71.84h21.77l.29.36V80l-.29.29H99.45L99.16,80V30l.29-.29Z" transform="translate(-1 -9.04)"/><path class="cls-1" d="M157.24,38.35l.36.36,16.63,41.23-.36.36h-9l-.36-.36-3-8.1H144.94l-3,8.1-.37.36h-9l-.37-.36,16.64-41.23.36-.36Zm-9.19,25.39h10.42l-5.21-14Z" transform="translate(-1 -9.04)"/><path class="cls-1" d="M191.37,38.35c10.27,0,15.84,4.2,15.84,11.72a8.31,8.31,0,0,1-3.9,7c4.7,1.59,7.3,4.71,7.3,10.27,0,9.12-7.3,13-16.42,13H180.31l-.36-.36V38.71l.36-.36Zm-3,16.49h3.9c4,0,5.43-1.52,5.43-4.34,0-2.38-1.45-3.69-5.28-3.69h-4Zm0,17h6.87c3.61,0,5.86-1.3,5.86-4.63s-2.25-4.56-5.86-4.56h-6.87Z" transform="translate(-1 -9.04)"/><g class="cls-2"><path class="cls-1" d="M20.65,99.19c-2-1.84-4.89-2.45-7.49-2.45a8,8,0,1,0,.15,15.91,10.75,10.75,0,0,0,4.74-1.07v-5.2H13.92l-.15-.16v-2.75l.15-.15h7l.15.15v9.94a13.06,13.06,0,0,1-7.8,2.45c-6.58,0-11.78-4.89-11.78-11.17A11.34,11.34,0,0,1,13.16,93.53c2.9,0,5.66.46,7.64,2V99Z" transform="translate(-1 -9.04)"/><path class="cls-1" d="M31.81,94c4.29,0,7,2.6,7,6.12a5.82,5.82,0,0,1-3.67,5.5l7,9.64-.16.15H38.39l-.15-.15-6.73-9H28.75v9l-.15.15H25.85l-.15-.15V94.14l.15-.15Zm-3.06,9.18h3.06c2.3,0,3.52-1.23,3.52-3.06s-1.22-3.06-3.52-3.06H28.75Z" transform="translate(-1 -9.04)"/><path class="cls-1" d="M65.16,104.69A11.32,11.32,0,1,1,53.84,93.53,11.27,11.27,0,0,1,65.16,104.69Zm-19.12,0a7.8,7.8,0,1,0,7.8-8A7.87,7.87,0,0,0,46,104.69Z" transform="translate(-1 -9.04)"/><path class="cls-1" d="M69.59,94l.16.15,4.89,16.21,4.74-15.9.16-.16h3l.16.16,4.74,15.9,4.89-16.21.16-.15H95.6l.15.15-6.58,21.11-.15.15H86.11l-.15-.15L81.07,99.49l-4.9,15.76-.15.15H73.11l-.15-.15L66.38,94.14l.15-.15Z" transform="translate(-1 -9.04)"/><path class="cls-1" d="M114,94l.15.15v2.75l-.15.16h-6.88v18.2l-.16.15h-2.75l-.15-.15V97.05H97.12L97,96.89V94.14l.15-.15Z" transform="translate(-1 -9.04)"/><path class="cls-1" d="M120.37,94l.15.15v8h11.63v-8l.15-.15h2.76l.15.15v21.11l-.15.15H132.3l-.15-.15v-10.1H120.52v10.1l-.15.15h-2.75l-.16-.15V94.14l.16-.15Z" transform="translate(-1 -9.04)"/><path class="cls-1" d="M151,94l.15.15v8h11.63v-8l.15-.15h2.76l.15.15v21.11l-.15.15h-2.76l-.15-.15v-10.1H151.11v10.1l-.15.15h-2.75l-.16-.15V94.14l.16-.15Z" transform="translate(-1 -9.04)"/><path class="cls-1" d="M173.6,94l.15.15v11.17c0,4.74,2.91,7.34,6.42,7.34s6.43-2.6,6.43-7.34V94.14l.15-.15h2.76l.15.15v11.78c0,6.27-4.28,9.94-9.49,9.94s-9.48-3.67-9.48-9.94V94.14l.15-.15Z" transform="translate(-1 -9.04)"/><path class="cls-1" d="M199.75,94c4.28,0,6.89,2.14,6.89,5.5A4.06,4.06,0,0,1,204.8,103c3.06,1.07,4.44,3.21,4.44,5.81,0,3.68-3.06,6.58-7.19,6.58H194.7l-.15-.15V94.14l.15-.15Zm-2.14,8.26h2.14c2.3,0,3.37-.77,3.37-2.76,0-1.68-1.07-2.44-3.37-2.44h-2.14Zm0,10.09h4.44a3.34,3.34,0,0,0,3.67-3.52,3.41,3.41,0,0,0-3.67-3.51h-4.44Z" transform="translate(-1 -9.04)"/></g><g class="cls-2"><path class="cls-1" d="M17.57,9l.17.16v3l-.17.16H11v15.9l-.16.17h-3l-.16-.17V12.38H1.17L1,12.22v-3L1.17,9Z" transform="translate(-1 -9.04)"/><path class="cls-1" d="M24.6,9l.16.16v7H35.47v-7L35.64,9h3l.17.16V28.28l-.17.17h-3l-.17-.17v-8.7H24.76v8.7l-.16.17h-3l-.16-.17V9.2L21.58,9Z" transform="translate(-1 -9.04)"/><path class="cls-1" d="M56.39,9l.16.16v3l-.16.16H47.52v4.19h6.19l.17.16v3l-.17.16H47.52V25.1h9.87l.17.17v3l-.17.17h-13l-.17-.17V9.2L44.34,9Z" transform="translate(-1 -9.04)"/></g></g></g></svg>