<svg xmlns="http://www.w3.org/2000/svg" viewBox="0 0 219.37 107.71"><defs><style>.cls-1{fill:#231f20;}.cls-2{opacity:0.8;}</style></defs><g id="Layer_2" data-name="Layer 2"><g id="Layer_1-2" data-name="Layer 1"><path class="cls-1" d="M39,51.15c-5-3.54-8.24-5.06-13.67-5.06a13.24,13.24,0,0,0,0,26.47C30.74,72.56,34,71,39,67.5l.37.36v9.69a24.52,24.52,0,0,1-14,3.83,22.06,22.06,0,1,1,0-44.11,24.52,24.52,0,0,1,14,3.83v9.69Z" transform="translate(-1 -9.04)"/><path class="cls-1" d="M90.84,59.33A22.42,22.42,0,1,1,68.42,37.27,22.26,22.26,0,0,1,90.84,59.33Zm-35.29,0a12.87,12.87,0,1,0,25.74,0,12.88,12.88,0,1,0-25.74,0Z" transform="translate(-1 -9.04)"/><path class="cls-1" d="M107.26,29.67l.29.29V71.84h21.77l.29.36V80l-.29.29H99.45L99.16,80V30l.29-.29Z" transform="translate(-1 -9.04)"/><path class="cls-1" d="M160.49,29.67l.36.36L180.6,79.94l-.36.36h-8.9l-.36-.36-4.2-11H146.17l-4.27,11-.36.36h-8.89l-.37-.36L152.1,30l.36-.36ZM149.21,60.56h14.54L156.44,41Z" transform="translate(-1 -9.04)"/><path class="cls-1" d="M199.18,29.67c9.84,0,16.57,5.07,16.57,13.31a9.69,9.69,0,0,1-4.63,8.61,13.65,13.65,0,0,1,9.26,13.16c0,9.26-7.24,15.55-16.86,15.55H186.67l-.36-.36V30l.36-.36ZM194.7,49.2h4.48c4.85,0,7-1.81,7-5.79,0-3.47-2.17-5.28-7-5.28H194.7Zm0,22.64h8.53c4.71,0,7.67-2.46,7.67-7.09,0-4.41-3-7.09-7.67-7.09H194.7Z" transform="translate(-1 -9.04)"/><g class="cls-2"><path class="cls-1" d="M21.34,99.51C19.29,97.62,16.28,97,13.59,97a8.1,8.1,0,0,0-8.37,8.23c0,4.74,3.63,8.21,8.53,8.21a11,11,0,0,0,4.9-1.1v-5.38H14.39l-.16-.15v-2.85l.16-.16h7.27l.16.16v10.28a13.64,13.64,0,0,1-8.07,2.53c-6.79,0-12.17-5.06-12.17-11.54a11.71,11.71,0,0,1,12-11.54c3,0,5.85.47,7.91,2v3.64Z" transform="translate(-1 -9.04)"/><path class="cls-1" d="M32.88,94.14c4.42,0,7.27,2.69,7.27,6.32a6,6,0,0,1-3.8,5.69l7.28,10-.16.16h-3.8l-.15-.16-7-9.32H29.72v9.32l-.16.16H26.71l-.16-.16V94.3l.16-.16Zm-3.16,9.48h3.16c2.37,0,3.63-1.26,3.63-3.16s-1.26-3.16-3.63-3.16H29.72Z" transform="translate(-1 -9.04)"/><path class="cls-1" d="M67.34,105.21a11.7,11.7,0,1,1-11.7-11.54A11.64,11.64,0,0,1,67.34,105.21Zm-19.76,0A8.06,8.06,0,1,0,55.64,97,8.12,8.12,0,0,0,47.58,105.21Z" transform="translate(-1 -9.04)"/><path class="cls-1" d="M71.92,94.14l.15.16,5.06,16.75L82,94.61l.16-.15h3.16l.16.15,4.9,16.44L95.47,94.3l.16-.16h3.16l.16.16-6.8,21.81-.16.16H89l-.16-.16L83.77,99.83l-5.06,16.28-.15.16h-3l-.16-.16L68.6,94.3l.15-.16Z" transform="translate(-1 -9.04)"/><path class="cls-1" d="M117.75,94.14l.16.16v2.84l-.16.16h-7.11v18.81l-.16.16h-2.84l-.16-.16V97.3h-7.11l-.16-.16V94.3l.16-.16Z" transform="translate(-1 -9.04)"/><path class="cls-1" d="M124.39,94.14l.16.16v8.22h12V94.3l.16-.16h2.85l.15.16v21.81l-.15.16h-2.85l-.16-.16V105.68h-12v10.43l-.16.16h-2.85l-.15-.16V94.3l.15-.16Z" transform="translate(-1 -9.04)"/><path class="cls-1" d="M156,94.14l.16.16v8.22h12V94.3l.16-.16h2.85l.15.16v21.81l-.15.16h-2.85l-.16-.16V105.68h-12v10.43l-.16.16h-2.84l-.16-.16V94.3l.16-.16Z" transform="translate(-1 -9.04)"/><path class="cls-1" d="M179.39,94.14l.16.16v11.54c0,4.9,3,7.58,6.64,7.58s6.64-2.68,6.64-7.58V94.3l.16-.16h2.84l.16.16v12.17c0,6.48-4.42,10.28-9.8,10.28s-9.8-3.8-9.8-10.28V94.3l.16-.16Z" transform="translate(-1 -9.04)"/><path class="cls-1" d="M206.42,94.14c4.43,0,7.11,2.21,7.11,5.69a4.22,4.22,0,0,1-1.89,3.64c3.16,1.1,4.58,3.32,4.58,6,0,3.8-3.16,6.8-7.43,6.8H201.2l-.15-.16V94.3l.15-.16Zm-2.21,8.54h2.21c2.37,0,3.48-.8,3.48-2.85,0-1.74-1.11-2.53-3.48-2.53h-2.21Zm0,10.43h4.58a3.45,3.45,0,0,0,3.8-3.64,3.53,3.53,0,0,0-3.8-3.63h-4.58Z" transform="translate(-1 -9.04)"/></g><g class="cls-2"><path class="cls-1" d="M17.57,9l.17.16v3l-.17.16H11v15.9l-.16.17h-3l-.16-.17V12.38H1.17L1,12.22v-3L1.17,9Z" transform="translate(-1 -9.04)"/><path class="cls-1" d="M24.6,9l.16.16v7H35.47v-7L35.64,9h3l.17.16V28.28l-.17.17h-3l-.17-.17v-8.7H24.76v8.7l-.16.17h-3l-.16-.17V9.2L21.58,9Z" transform="translate(-1 -9.04)"/><path class="cls-1" d="M56.39,9l.16.16v3l-.16.16H47.52v4.19h6.19l.17.16v3l-.17.16H47.52V25.1h9.87l.17.17v3l-.17.17h-13l-.17-.17V9.2L44.34,9Z" transform="translate(-1 -9.04)"/></g></g></g></svg>